<?xml version="1.0" encoding="UTF-8"?>
<svg xmlns="http://www.w3.org/2000/svg" xmlns:xlink="http://www.w3.org/1999/xlink" viewBox="0 0 25 25" width="25px" height="25px">
<g id="surface286629">
<path style=" stroke:none;fillRule:nonzero;fill:rgb(92.54902%,94.117647%,94.509804%);fillOpacity:1;" d="M 10.5 1.5 C 5.808594 1.5 2 5.308594 2 10 C 2 14.691406 5.808594 18.5 10.5 18.5 C 12.355469 18.5 14.070312 17.902344 15.46875 16.890625 L 22.046875 23.453125 L 23.453125 22.046875 L 16.953125 15.53125 C 18.230469 14.042969 19 12.113281 19 10 C 19 5.308594 15.191406 1.5 10.5 1.5 Z M 10.5 2.5 C 14.648438 2.5 18 5.851562 18 10 C 18 14.148438 14.648438 17.5 10.5 17.5 C 6.351562 17.5 3 14.148438 3 10 C 3 5.851562 6.351562 2.5 10.5 2.5 Z M 10.5 2.5 "/>
</g>
</svg>
